<?xml version="1.0" encoding="iso-8859-1"?>
<!-- Uploaded to: SVG Repo, www.svgrepo.com, Generator: SVG Repo Mixer Tools -->
<!DOCTYPE svg PUBLIC "-//W3C//DTD SVG 1.1//EN" "http://www.w3.org/Graphics/SVG/1.1/DTD/svg11.dtd">
<svg fill="#000000" version="1.1" id="Capa_1" xmlns="http://www.w3.org/2000/svg" xmlns:xlink="http://www.w3.org/1999/xlink" 
	 width="800px" height="800px" viewBox="0 0 575.279 575.279"
	 xml:space="preserve">
<g>
	<g>
		<path d="M238.502,115.644v-46.98C120.943,91.644,31.94,195.39,31.94,319.578c-0.003,140.994,114.707,255.701,255.7,255.701
			c140.992,0,255.699-114.707,255.699-255.701c0-124.188-89.006-227.934-206.561-250.915v46.98
			c92.047,22.182,160.662,105.172,160.662,203.935c0,115.686-94.113,209.803-209.8,209.803
			c-115.687,0-209.803-94.117-209.803-209.803C77.837,220.816,146.455,137.826,238.502,115.644z"/>
		<path d="M312.298,256.905V111.274V65.089V24.658C312.298,11.041,301.261,0,287.64,0c-13.62,0-24.657,11.041-24.657,24.658v40.432
			v46.185v145.631c0,13.617,11.037,24.658,24.657,24.658C301.261,281.563,312.298,270.522,312.298,256.905z"/>
	</g>
</g>
</svg>